<?xml version="1.0" standalone="no"?><!DOCTYPE svg PUBLIC "-//W3C//DTD SVG 1.1//EN" "http://www.w3.org/Graphics/SVG/1.1/DTD/svg11.dtd"><svg t="1572590118099" class="icon" viewBox="0 0 1390 1024" version="1.1" xmlns="http://www.w3.org/2000/svg" p-id="1602" xmlns:xlink="http://www.w3.org/1999/xlink" width="271.484375" height="200"><defs><style type="text/css"></style></defs><path d="M1279.461328 1023.998758h-73.995772a7.040297 7.040297 0 1 1 0-14.080594h73.995772a7.040297 7.040297 0 1 1 0 14.080594zM1151.650562 1023.998758H167.345221a7.040297 7.040297 0 1 1 0-14.080594h984.305341a7.040297 7.040297 0 1 1 0 14.080594zM135.263372 1023.998758H111.45999a7.040297 7.040297 0 1 1 0-14.080594h23.803382a7.040297 7.040297 0 1 1 0 14.080594z" fill="#7ECAFC" p-id="1603"></path><path d="M104.129089 440.334642c-0.699186-7.821449-7.606601-13.593772-15.426808-12.894586a14.627028 14.627028 0 0 0-9.558858 5.065686 13.660834 13.660834 0 0 0-3.179249 10.316414 14.6084 14.6084 0 0 0 5.1402 9.558858 13.088321 13.088321 0 0 0 9.003731 3.381678h1.126398c7.818965-0.700428 13.59253-7.606601 12.894586-15.42805z m-8.663453 11.405555a11.529744 11.529744 0 0 1-12.756735-1.398373 10.561067 10.561067 0 0 1-4.0523-7.801578 11.539679 11.539679 0 0 1 2.593074-8.488346 10.578453 10.578453 0 0 1 7.821449-4.053542h1.033256a11.447779 11.447779 0 0 1 11.508632 10.475376 11.52726 11.52726 0 0 1-6.147376 11.266463zM1318.543734 305.380501c-0.968677-10.820623-10.527536-18.809727-21.346917-17.84105a20.221761 20.221761 0 0 0-13.223688 7.008008 18.901627 18.901627 0 0 0-4.401272 14.27433 20.210584 20.210584 0 0 0 7.113569 13.22493 18.108057 18.108057 0 0 0 12.457439 4.679457h1.558577c10.818139-0.964952 18.807243-10.522568 17.842292-21.345675z m-11.988003 15.783231a15.955855 15.955855 0 0 1-17.652282-1.934871 14.6084 14.6084 0 0 1-5.608394-10.794543 15.96579 15.96579 0 0 1 3.587832-11.745833 14.639447 14.639447 0 0 1 10.821865-5.608394h1.430662c8.279708-0.074514 15.221895 6.241759 15.922323 14.494146a15.943436 15.943436 0 0 1-8.502006 15.589495zM219.053963 119.250391a3.055059 3.055059 0 0 1-3.055059-3.05506V96.440523l-13.951438 13.95268a3.132057 3.132057 0 0 1-4.428594-4.427353l13.955163-13.952679h-19.790823a3.06872 3.06872 0 1 1 0-6.138682h19.790823l-13.955163-13.786266a2.915967 2.915967 0 0 1 0-4.427352 2.914725 2.914725 0 0 1 2.215539-1.01587c0.850697 0 1.656687 0.368843 2.213055 1.01587l13.951438 13.818555V61.722133a3.051334 3.051334 0 0 1 4.693117-3.164346 3.04264 3.04264 0 0 1 1.277909 3.164346v19.757293l14.089288-13.953922a2.918451 2.918451 0 0 1 4.428594 0 2.918451 2.918451 0 0 1 0 4.427353l-13.955163 13.955163h19.75605a3.067478 3.067478 0 1 1 0 6.136198h-19.75605l13.955163 13.956405c0.791086 0.787361 1.097834 1.94108 0.809715 3.021529a3.138266 3.138266 0 0 1-2.213055 2.215539 3.134541 3.134541 0 0 1-3.025254-0.813441l-14.089288-13.984969v19.75605c0.336553 1.71133-1.372293 3.053817-3.051333 3.053818h0.135366zM199.697803 896.274924h-8.443638v-8.444879c0-1.404582-1.136333-2.540915-2.540915-2.540915s-2.540915 1.136333-2.540915 2.540915v8.444879h-8.443638a2.539673 2.539673 0 1 0 0 5.081831h8.443638v8.443637a2.529738 2.529738 0 0 0 2.528496 2.526013l0.02608-0.109287a2.521045 2.521045 0 0 0 2.527254-2.528496v-8.330625h8.443638a2.542157 2.542157 0 0 0 0-5.083073zM1217.114522 898.807146c0 16.738248-11.334767 29.903566-25.352025 29.903567 14.05824 0 25.352025 13.391343 25.352025 29.904808 0-16.740732 11.336009-29.904808 25.348299-29.904808-14.05824 0-25.348299-13.386376-25.348299-29.903567z m0 0" fill="#CCCCCC" p-id="1604"></path><path d="M988.198679 129.231493H402.550016C319.268602 129.231493 252.104489 196.395606 252.104489 279.675778v586.993634c0 81.935201 67.164113 149.094346 150.445527 149.094347h586.992392c81.936443 0 149.095588-67.159146 149.095588-150.443044V279.675778c-0.001242-83.280172-67.160387-150.444285-150.439317-150.444285z" fill="#DFEFF7" p-id="1605"></path><path d="M326.618131 866.669412v-586.993634c0-83.280172 67.164113-150.444285 150.445527-150.444285h-74.513642C319.268602 129.231493 252.104489 196.395606 252.104489 279.675778v586.993634c0 81.935201 67.164113 149.094346 150.445527 149.094347h74.513642c-83.281414 0-150.445527-67.159146-150.445527-149.094347z" fill="#C7E6F9" p-id="1606"></path><path d="M989.542408 1022.804056H402.550016c-86.838198 0-157.485824-70.04034-157.485824-156.134644v-586.993634c0-42.158577 16.355744-81.732772 46.054398-111.431426s69.272849-46.054398 111.431426-46.054398h585.648663c42.157335 0 81.73153 16.355744 111.428942 46.054398 29.69617 29.698654 46.050673 69.271607 46.050673 111.431426v326.867752a7.040297 7.040297 0 1 1-14.080595 0V279.675778c0-79.072635-64.328869-143.403988-143.39902-143.403988H402.550016c-79.073877 0-143.403988 64.330111-143.403988 143.403988v586.993634c0 78.327499 64.330111 142.054049 143.403988 142.054049h586.992392c78.328741 0 142.055291-64.330111 142.055291-143.402746v-51.587036a7.040297 7.040297 0 1 1 14.080595 0v51.587036c-0.001242 86.836957-70.042824 157.483341-156.135886 157.483341z" fill="#7ECAFC" p-id="1607"></path><path d="M1138.636754 709.003513a7.040297 7.040297 0 0 1-7.040297-7.040297v-58.989966a7.040297 7.040297 0 1 1 14.080595 0v58.989966a7.040297 7.040297 0 0 1-7.040298 7.040297zM552.573299 287.461212l33.68265 127.771026 107.298403 38.699902-106.835177 39.939312-32.134008 128.080257-33.680166-127.696512-107.377884-38.701144 106.914658-39.935586z" fill="#7ECAFC" p-id="1608"></path><path d="M776.520324 324.537958l41.867974 84.667368 80.805077 11.663869-69.137482 43.338376-4.174006 94.400091-41.867974-84.667368-80.80011-11.66511 69.136241-43.337134z" fill="#C7E6F9" p-id="1609"></path><path d="M564.936354 628.747353l18.848226 53.611324 47.430417 12.898311-44.495822 20.780613-9.423491 56.162174-18.768745-53.685837-47.434143-12.903279 44.495822-20.85761z" fill="#FFFFFF" p-id="1610"></path><path d="M870.068476 651.690104l-112.782606 112.783848 96.948457 96.945974c13.595014 13.595014 35.919301 13.595014 49.513074 0l63.270775-63.265807c13.593772-13.593772 13.593772-35.918059 0-49.515557l-96.9497-96.948458zM752.570398 534.195751c-13.595014-13.59874-35.918059-13.59874-49.513073 0l-63.26705 63.268292v-0.004968c-13.597498 13.597498-13.597498 35.846029 0 49.442285l95.555053 95.633292 112.782606-112.783848-95.557536-95.555053z m-20.004429 172.572353l-79.719662-79.796659 79.719662-79.800385 79.797901 79.800385-79.797901 79.796659z" fill="#C7E6F9" p-id="1611"></path></svg>