<?xml version="1.0" standalone="no"?><!DOCTYPE svg PUBLIC "-//W3C//DTD SVG 1.1//EN" "http://www.w3.org/Graphics/SVG/1.1/DTD/svg11.dtd"><svg t="1572590313925" class="icon" viewBox="0 0 1024 1024" version="1.1" xmlns="http://www.w3.org/2000/svg" p-id="2172" xmlns:xlink="http://www.w3.org/1999/xlink" width="200" height="200"><defs><style type="text/css"></style></defs><path d="M732.94 878H952c22.091 0 40 17.909 40 40s-17.909 40-40 40H503c-1.948 0-3.864-0.14-5.738-0.408A453.7 453.7 0 0 1 478 958C231.681 958 32 758.319 32 512S231.681 66 478 66s446 199.681 446 446c0 151.523-75.562 285.399-191.06 366zM478 898c213.182 0 386-172.818 386-386S691.182 126 478 126 92 298.818 92 512s172.818 386 386 386z" fill="#1296db" p-id="2173"></path><path d="M478 320.87c30.376 0 55-24.596 55-54.935 0-30.34-24.624-54.935-55-54.935s-55 24.595-55 54.935c0 30.34 24.624 54.935 55 54.935z m0 60c-63.497 0-115-51.443-115-114.935C363 202.442 414.503 151 478 151s115 51.442 115 114.935c0 63.492-51.503 114.935-115 114.935zM725 566.87c30.376 0 55-24.596 55-54.935 0-30.34-24.624-54.935-55-54.935s-55 24.595-55 54.935c0 30.34 24.624 54.935 55 54.935z m0 60c-63.497 0-115-51.443-115-114.935C610 448.442 661.503 397 725 397s115 51.442 115 114.935c0 63.492-51.503 114.935-115 114.935zM231 566.87c30.376 0 55-24.596 55-54.935 0-30.34-24.624-54.935-55-54.935s-55 24.595-55 54.935c0 30.34 24.624 54.935 55 54.935z m0 60c-63.497 0-115-51.443-115-114.935C116 448.442 167.503 397 231 397s115 51.442 115 114.935c0 63.492-51.503 114.935-115 114.935zM478 813.87c30.376 0 55-24.596 55-54.935 0-30.34-24.624-54.935-55-54.935s-55 24.595-55 54.935c0 30.34 24.624 54.935 55 54.935z m0 60c-63.497 0-115-51.443-115-114.935C363 695.442 414.503 644 478 644s115 51.442 115 114.935c0 63.492-51.503 114.935-115 114.935z" fill="#1296db" p-id="2174"></path></svg>