<?xml version="1.0" standalone="no"?><!DOCTYPE svg PUBLIC "-//W3C//DTD SVG 1.1//EN" "http://www.w3.org/Graphics/SVG/1.1/DTD/svg11.dtd"><svg t="1572590302029" class="icon" viewBox="0 0 1024 1024" version="1.1" xmlns="http://www.w3.org/2000/svg" p-id="1906" xmlns:xlink="http://www.w3.org/1999/xlink" width="200" height="200"><defs><style type="text/css"></style></defs><path d="M512 112c-220.56 0-400 179.44-400 400s179.44 400 400 400 400-179.44 400-400-179.44-400-400-400z m0 759.49c-198.22 0-359.49-161.26-359.49-359.49S313.78 152.51 512 152.51 871.49 313.77 871.49 512 710.22 871.49 512 871.49z" fill="#1296db" p-id="1907"></path><path d="M720.9 409.92H580.62L537 267.34c-6.74-21.93-43.2-21.93-49.93 0l-43.7 142.58H303.08A26.11 26.11 0 0 0 287 456.61l115.06 89.89-44.13 145.4a26.12 26.12 0 0 0 10.13 29.1 25.93 25.93 0 0 0 30.76-0.84l113.28-87.39 113.18 86.91a26.1 26.1 0 0 0 40.9-28.31L622 546.65l115.06-90a26.13 26.13 0 0 0-16.14-46.69z" fill="#1296db" p-id="1908"></path></svg>